<svg width="1200" height="300" viewBox="0 0 1200 300" fill="none" xmlns="http://www.w3.org/2000/svg">
<rect width="1200" height="300" rx="10" fill="#0F1115"/>
<path d="M322.888 195V180.152H334.664V120.248H322.888V105.4H368.968C374.429 105.4 379.165 106.339 383.176 108.216C387.272 110.008 390.429 112.611 392.648 116.024C394.952 119.352 396.104 123.363 396.104 128.056V129.336C396.104 133.432 395.336 136.803 393.8 139.448C392.264 142.008 390.429 144.013 388.296 145.464C386.248 146.829 384.285 147.811 382.408 148.408V150.712C384.285 151.224 386.333 152.205 388.552 153.656C390.771 155.021 392.648 157.027 394.184 159.672C395.805 162.317 396.616 165.773 396.616 170.04V171.32C396.616 176.269 395.464 180.536 393.16 184.12C390.856 187.619 387.656 190.307 383.56 192.184C379.549 194.061 374.856 195 369.48 195H322.888ZM351.56 179.64H367.432C371.101 179.64 374.045 178.744 376.264 176.952C378.568 175.16 379.72 172.6 379.72 169.272V167.992C379.72 164.664 378.611 162.104 376.392 160.312C374.173 158.52 371.187 157.624 367.432 157.624H351.56V179.64ZM351.56 142.264H367.176C370.675 142.264 373.533 141.368 375.752 139.576C378.056 137.784 379.208 135.309 379.208 132.152V130.872C379.208 127.629 378.099 125.155 375.88 123.448C373.661 121.656 370.76 120.76 367.176 120.76H351.56V142.264ZM439.888 196.792C433.573 196.792 427.984 195.469 423.12 192.824C418.341 190.093 414.587 186.296 411.856 181.432C409.211 176.483 407.888 170.68 407.888 164.024V162.488C407.888 155.832 409.211 150.072 411.856 145.208C414.501 140.259 418.213 136.461 422.992 133.816C427.771 131.085 433.317 129.72 439.632 129.72C445.861 129.72 451.28 131.128 455.888 133.944C460.496 136.675 464.08 140.515 466.64 145.464C469.2 150.328 470.48 156.003 470.48 162.488V167.992H424.272C424.443 172.344 426.064 175.885 429.136 178.616C432.208 181.347 435.963 182.712 440.4 182.712C444.923 182.712 448.251 181.731 450.384 179.768C452.517 177.805 454.139 175.629 455.248 173.24L468.432 180.152C467.237 182.371 465.488 184.803 463.184 187.448C460.965 190.008 457.979 192.227 454.224 194.104C450.469 195.896 445.691 196.792 439.888 196.792ZM424.4 155.96H454.096C453.755 152.291 452.261 149.347 449.616 147.128C447.056 144.909 443.685 143.8 439.504 143.8C435.152 143.8 431.696 144.909 429.136 147.128C426.576 149.347 424.997 152.291 424.4 155.96ZM504.547 196.792C500.024 196.792 495.971 196.024 492.387 194.488C488.803 192.867 485.944 190.563 483.811 187.576C481.763 184.504 480.739 180.792 480.739 176.44C480.739 172.088 481.763 168.461 483.811 165.56C485.944 162.573 488.846 160.355 492.515 158.904C496.27 157.368 500.536 156.6 505.315 156.6H522.723V153.016C522.723 150.029 521.784 147.597 519.907 145.72C518.03 143.757 515.043 142.776 510.947 142.776C506.936 142.776 503.95 143.715 501.987 145.592C500.024 147.384 498.744 149.731 498.147 152.632L483.299 147.64C484.323 144.397 485.944 141.453 488.163 138.808C490.467 136.077 493.496 133.901 497.251 132.28C501.091 130.573 505.742 129.72 511.203 129.72C519.566 129.72 526.179 131.811 531.043 135.992C535.907 140.173 538.339 146.232 538.339 154.168V177.848C538.339 180.408 539.534 181.688 541.923 181.688H547.043V195H536.291C533.134 195 530.531 194.232 528.483 192.696C526.435 191.16 525.411 189.112 525.411 186.552V186.424H522.979C522.638 187.448 521.87 188.813 520.675 190.52C519.48 192.141 517.603 193.592 515.043 194.872C512.483 196.152 508.984 196.792 504.547 196.792ZM507.363 183.736C511.886 183.736 515.555 182.499 518.371 180.024C521.272 177.464 522.723 174.093 522.723 169.912V168.632H506.467C503.48 168.632 501.134 169.272 499.427 170.552C497.72 171.832 496.867 173.624 496.867 175.928C496.867 178.232 497.763 180.109 499.555 181.56C501.347 183.011 503.95 183.736 507.363 183.736ZM581.277 196.024C576.328 196.024 571.976 194.915 568.221 192.696C564.552 190.392 561.693 187.235 559.645 183.224C557.597 179.213 556.573 174.605 556.573 169.4V131.512H572.701V168.12C572.701 172.899 573.853 176.483 576.157 178.872C578.546 181.261 581.917 182.456 586.269 182.456C591.218 182.456 595.058 180.835 597.789 177.592C600.52 174.264 601.885 169.656 601.885 163.768V131.512H618.013V195H602.141V186.68H599.837C598.813 188.813 596.893 190.904 594.077 192.952C591.261 195 586.994 196.024 581.277 196.024Z" fill="#5A5A5A"/>
<path d="M660.28 195C656.099 195 652.685 193.72 650.04 191.16C647.48 188.515 646.2 185.016 646.2 180.664V144.824H630.328V131.512H646.2V111.8H662.328V131.512H679.736V144.824H662.328V177.848C662.328 180.408 663.523 181.688 665.912 181.688H678.2V195H660.28ZM694.335 195V131.512H710.207V138.68H712.511C713.45 136.12 714.986 134.243 717.119 133.048C719.338 131.853 721.898 131.256 724.799 131.256H732.479V145.592H724.543C720.447 145.592 717.076 146.701 714.431 148.92C711.786 151.053 710.463 154.381 710.463 158.904V195H694.335ZM771.763 196.792C765.448 196.792 759.859 195.469 754.995 192.824C750.216 190.093 746.462 186.296 743.731 181.432C741.086 176.483 739.763 170.68 739.763 164.024V162.488C739.763 155.832 741.086 150.072 743.731 145.208C746.376 140.259 750.088 136.461 754.867 133.816C759.646 131.085 765.192 129.72 771.507 129.72C777.736 129.72 783.155 131.128 787.763 133.944C792.371 136.675 795.955 140.515 798.515 145.464C801.075 150.328 802.355 156.003 802.355 162.488V167.992H756.147C756.318 172.344 757.939 175.885 761.011 178.616C764.083 181.347 767.838 182.712 772.275 182.712C776.798 182.712 780.126 181.731 782.259 179.768C784.392 177.805 786.014 175.629 787.123 173.24L800.307 180.152C799.112 182.371 797.363 184.803 795.059 187.448C792.84 190.008 789.854 192.227 786.099 194.104C782.344 195.896 777.566 196.792 771.763 196.792ZM756.275 155.96H785.971C785.63 152.291 784.136 149.347 781.491 147.128C778.931 144.909 775.56 143.8 771.379 143.8C767.027 143.8 763.571 144.909 761.011 147.128C758.451 149.347 756.872 152.291 756.275 155.96ZM845.638 196.792C839.323 196.792 833.734 195.469 828.87 192.824C824.091 190.093 820.337 186.296 817.606 181.432C814.961 176.483 813.638 170.68 813.638 164.024V162.488C813.638 155.832 814.961 150.072 817.606 145.208C820.251 140.259 823.963 136.461 828.742 133.816C833.521 131.085 839.067 129.72 845.382 129.72C851.611 129.72 857.03 131.128 861.638 133.944C866.246 136.675 869.83 140.515 872.39 145.464C874.95 150.328 876.23 156.003 876.23 162.488V167.992H830.022C830.193 172.344 831.814 175.885 834.886 178.616C837.958 181.347 841.713 182.712 846.15 182.712C850.673 182.712 854.001 181.731 856.134 179.768C858.267 177.805 859.889 175.629 860.998 173.24L874.182 180.152C872.987 182.371 871.238 184.803 868.934 187.448C866.715 190.008 863.729 192.227 859.974 194.104C856.219 195.896 851.441 196.792 845.638 196.792ZM830.15 155.96H859.846C859.505 152.291 858.011 149.347 855.366 147.128C852.806 144.909 849.435 143.8 845.254 143.8C840.902 143.8 837.446 144.909 834.886 147.128C832.326 149.347 830.747 152.291 830.15 155.96Z" fill="#61AFEF"/>
</svg>
