<svg width="1280" height="640" viewBox="0 0 1280 640" fill="none" xmlns="http://www.w3.org/2000/svg">
<rect width="1280" height="640" rx="10" fill="#0F1115"/>
<line x1="79" y1="233" x2="297" y2="233" stroke="#5A5A5A" stroke-width="10"/>
<line x1="982" y1="233" x2="1200" y2="233" stroke="#5A5A5A" stroke-width="10"/>
<path d="M368.888 283V268.152H380.664V208.248H368.888V193.4H414.968C420.429 193.4 425.165 194.339 429.176 196.216C433.272 198.008 436.429 200.611 438.648 204.024C440.952 207.352 442.104 211.363 442.104 216.056V217.336C442.104 221.432 441.336 224.803 439.8 227.448C438.264 230.008 436.429 232.013 434.296 233.464C432.248 234.829 430.285 235.811 428.408 236.408V238.712C430.285 239.224 432.333 240.205 434.552 241.656C436.771 243.021 438.648 245.027 440.184 247.672C441.805 250.317 442.616 253.773 442.616 258.04V259.32C442.616 264.269 441.464 268.536 439.16 272.12C436.856 275.619 433.656 278.307 429.56 280.184C425.549 282.061 420.856 283 415.48 283H368.888ZM397.56 267.64H413.432C417.101 267.64 420.045 266.744 422.264 264.952C424.568 263.16 425.72 260.6 425.72 257.272V255.992C425.72 252.664 424.611 250.104 422.392 248.312C420.173 246.52 417.187 245.624 413.432 245.624H397.56V267.64ZM397.56 230.264H413.176C416.675 230.264 419.533 229.368 421.752 227.576C424.056 225.784 425.208 223.309 425.208 220.152V218.872C425.208 215.629 424.099 213.155 421.88 211.448C419.661 209.656 416.76 208.76 413.176 208.76H397.56V230.264ZM485.888 284.792C479.573 284.792 473.984 283.469 469.12 280.824C464.341 278.093 460.587 274.296 457.856 269.432C455.211 264.483 453.888 258.68 453.888 252.024V250.488C453.888 243.832 455.211 238.072 457.856 233.208C460.501 228.259 464.213 224.461 468.992 221.816C473.771 219.085 479.317 217.72 485.632 217.72C491.861 217.72 497.28 219.128 501.888 221.944C506.496 224.675 510.08 228.515 512.64 233.464C515.2 238.328 516.48 244.003 516.48 250.488V255.992H470.272C470.443 260.344 472.064 263.885 475.136 266.616C478.208 269.347 481.963 270.712 486.4 270.712C490.923 270.712 494.251 269.731 496.384 267.768C498.517 265.805 500.139 263.629 501.248 261.24L514.432 268.152C513.237 270.371 511.488 272.803 509.184 275.448C506.965 278.008 503.979 280.227 500.224 282.104C496.469 283.896 491.691 284.792 485.888 284.792ZM470.4 243.96H500.096C499.755 240.291 498.261 237.347 495.616 235.128C493.056 232.909 489.685 231.8 485.504 231.8C481.152 231.8 477.696 232.909 475.136 235.128C472.576 237.347 470.997 240.291 470.4 243.96ZM550.547 284.792C546.024 284.792 541.971 284.024 538.387 282.488C534.803 280.867 531.944 278.563 529.811 275.576C527.763 272.504 526.739 268.792 526.739 264.44C526.739 260.088 527.763 256.461 529.811 253.56C531.944 250.573 534.846 248.355 538.515 246.904C542.27 245.368 546.536 244.6 551.315 244.6H568.723V241.016C568.723 238.029 567.784 235.597 565.907 233.72C564.03 231.757 561.043 230.776 556.947 230.776C552.936 230.776 549.95 231.715 547.987 233.592C546.024 235.384 544.744 237.731 544.147 240.632L529.299 235.64C530.323 232.397 531.944 229.453 534.163 226.808C536.467 224.077 539.496 221.901 543.251 220.28C547.091 218.573 551.742 217.72 557.203 217.72C565.566 217.72 572.179 219.811 577.043 223.992C581.907 228.173 584.339 234.232 584.339 242.168V265.848C584.339 268.408 585.534 269.688 587.923 269.688H593.043V283H582.291C579.134 283 576.531 282.232 574.483 280.696C572.435 279.16 571.411 277.112 571.411 274.552V274.424H568.979C568.638 275.448 567.87 276.813 566.675 278.52C565.48 280.141 563.603 281.592 561.043 282.872C558.483 284.152 554.984 284.792 550.547 284.792ZM553.363 271.736C557.886 271.736 561.555 270.499 564.371 268.024C567.272 265.464 568.723 262.093 568.723 257.912V256.632H552.467C549.48 256.632 547.134 257.272 545.427 258.552C543.72 259.832 542.867 261.624 542.867 263.928C542.867 266.232 543.763 268.109 545.555 269.56C547.347 271.011 549.95 271.736 553.363 271.736ZM627.277 284.024C622.328 284.024 617.976 282.915 614.221 280.696C610.552 278.392 607.693 275.235 605.645 271.224C603.597 267.213 602.573 262.605 602.573 257.4V219.512H618.701V256.12C618.701 260.899 619.853 264.483 622.157 266.872C624.546 269.261 627.917 270.456 632.269 270.456C637.218 270.456 641.058 268.835 643.789 265.592C646.52 262.264 647.885 257.656 647.885 251.768V219.512H664.013V283H648.141V274.68H645.837C644.813 276.813 642.893 278.904 640.077 280.952C637.261 283 632.994 284.024 627.277 284.024Z" fill="#5A5A5A"/>
<path d="M706.28 283C702.099 283 698.685 281.72 696.04 279.16C693.48 276.515 692.2 273.016 692.2 268.664V232.824H676.328V219.512H692.2V199.8H708.328V219.512H725.736V232.824H708.328V265.848C708.328 268.408 709.523 269.688 711.912 269.688H724.2V283H706.28ZM740.335 283V219.512H756.207V226.68H758.511C759.45 224.12 760.986 222.243 763.119 221.048C765.338 219.853 767.898 219.256 770.799 219.256H778.479V233.592H770.543C766.447 233.592 763.076 234.701 760.431 236.92C757.786 239.053 756.463 242.381 756.463 246.904V283H740.335ZM817.763 284.792C811.448 284.792 805.859 283.469 800.995 280.824C796.216 278.093 792.462 274.296 789.731 269.432C787.086 264.483 785.763 258.68 785.763 252.024V250.488C785.763 243.832 787.086 238.072 789.731 233.208C792.376 228.259 796.088 224.461 800.867 221.816C805.646 219.085 811.192 217.72 817.507 217.72C823.736 217.72 829.155 219.128 833.763 221.944C838.371 224.675 841.955 228.515 844.515 233.464C847.075 238.328 848.355 244.003 848.355 250.488V255.992H802.147C802.318 260.344 803.939 263.885 807.011 266.616C810.083 269.347 813.838 270.712 818.275 270.712C822.798 270.712 826.126 269.731 828.259 267.768C830.392 265.805 832.014 263.629 833.123 261.24L846.307 268.152C845.112 270.371 843.363 272.803 841.059 275.448C838.84 278.008 835.854 280.227 832.099 282.104C828.344 283.896 823.566 284.792 817.763 284.792ZM802.275 243.96H831.971C831.63 240.291 830.136 237.347 827.491 235.128C824.931 232.909 821.56 231.8 817.379 231.8C813.027 231.8 809.571 232.909 807.011 235.128C804.451 237.347 802.872 240.291 802.275 243.96ZM891.638 284.792C885.323 284.792 879.734 283.469 874.87 280.824C870.091 278.093 866.337 274.296 863.606 269.432C860.961 264.483 859.638 258.68 859.638 252.024V250.488C859.638 243.832 860.961 238.072 863.606 233.208C866.251 228.259 869.963 224.461 874.742 221.816C879.521 219.085 885.067 217.72 891.382 217.72C897.611 217.72 903.03 219.128 907.638 221.944C912.246 224.675 915.83 228.515 918.39 233.464C920.95 238.328 922.23 244.003 922.23 250.488V255.992H876.022C876.193 260.344 877.814 263.885 880.886 266.616C883.958 269.347 887.713 270.712 892.15 270.712C896.673 270.712 900.001 269.731 902.134 267.768C904.267 265.805 905.889 263.629 906.998 261.24L920.182 268.152C918.987 270.371 917.238 272.803 914.934 275.448C912.715 278.008 909.729 280.227 905.974 282.104C902.219 283.896 897.441 284.792 891.638 284.792ZM876.15 243.96H905.846C905.505 240.291 904.011 237.347 901.366 235.128C898.806 232.909 895.435 231.8 891.254 231.8C886.902 231.8 883.446 232.909 880.886 235.128C878.326 237.347 876.747 240.291 876.15 243.96Z" fill="#61AFEF"/>
<path d="M369.624 396V368.16H374.584V370.56H375.304C375.758 369.787 376.464 369.107 377.424 368.52C378.384 367.907 379.758 367.6 381.544 367.6C383.144 367.6 384.624 368 385.984 368.8C387.344 369.573 388.438 370.72 389.264 372.24C390.091 373.76 390.504 375.6 390.504 377.76V378.4C390.504 380.56 390.091 382.4 389.264 383.92C388.438 385.44 387.344 386.6 385.984 387.4C384.624 388.173 383.144 388.56 381.544 388.56C380.344 388.56 379.331 388.413 378.504 388.12C377.704 387.853 377.051 387.507 376.544 387.08C376.064 386.627 375.678 386.173 375.384 385.72H374.664V396H369.624ZM380.024 384.16C381.598 384.16 382.891 383.667 383.904 382.68C384.944 381.667 385.464 380.2 385.464 378.28V377.88C385.464 375.96 384.944 374.507 383.904 373.52C382.864 372.507 381.571 372 380.024 372C378.478 372 377.184 372.507 376.144 373.52C375.104 374.507 374.584 375.96 374.584 377.88V378.28C374.584 380.2 375.104 381.667 376.144 382.68C377.184 383.667 378.478 384.16 380.024 384.16ZM395.132 388V368.16H400.092V370.4H400.812C401.105 369.6 401.585 369.013 402.252 368.64C402.945 368.267 403.745 368.08 404.652 368.08H407.052V372.56H404.572C403.292 372.56 402.239 372.907 401.412 373.6C400.585 374.267 400.172 375.307 400.172 376.72V388H395.132ZM419.328 388.56C417.355 388.56 415.608 388.147 414.088 387.32C412.595 386.467 411.422 385.28 410.568 383.76C409.742 382.213 409.328 380.4 409.328 378.32V377.84C409.328 375.76 409.742 373.96 410.568 372.44C411.395 370.893 412.555 369.707 414.048 368.88C415.542 368.027 417.275 367.6 419.248 367.6C421.195 367.6 422.888 368.04 424.328 368.92C425.768 369.773 426.888 370.973 427.688 372.52C428.488 374.04 428.888 375.813 428.888 377.84V379.56H414.448C414.502 380.92 415.008 382.027 415.968 382.88C416.928 383.733 418.102 384.16 419.488 384.16C420.902 384.16 421.942 383.853 422.608 383.24C423.275 382.627 423.782 381.947 424.128 381.2L428.248 383.36C427.875 384.053 427.328 384.813 426.608 385.64C425.915 386.44 424.982 387.133 423.808 387.72C422.635 388.28 421.142 388.56 419.328 388.56ZM414.488 375.8H423.768C423.662 374.653 423.195 373.733 422.368 373.04C421.568 372.347 420.515 372 419.208 372C417.848 372 416.768 372.347 415.968 373.04C415.168 373.733 414.675 374.653 414.488 375.8ZM440.974 388C439.668 388 438.601 387.6 437.774 386.8C436.974 385.973 436.574 384.88 436.574 383.52V372.32H431.614V368.16H436.574V362H441.614V368.16H445.854V372.32H441.614V382.64C441.614 383.44 441.988 383.84 442.734 383.84H446.574V388H440.974ZM454.014 388C452.708 388 451.641 387.6 450.814 386.8C450.014 385.973 449.614 384.88 449.614 383.52V372.32H445.854V368.16H449.614V362H454.654V368.16H460.094V372.32H454.654V382.64C454.654 383.44 455.028 383.84 455.774 383.84H459.614V388H454.014ZM466.823 396V391.6H477.623C478.37 391.6 478.743 391.2 478.743 390.4V385.4H478.023C477.81 385.853 477.477 386.307 477.023 386.76C476.57 387.213 475.957 387.587 475.183 387.88C474.41 388.173 473.423 388.32 472.223 388.32C470.677 388.32 469.317 387.973 468.143 387.28C466.997 386.56 466.103 385.573 465.463 384.32C464.823 383.067 464.503 381.627 464.503 380V368.16H469.543V379.6C469.543 381.093 469.903 382.213 470.623 382.96C471.37 383.707 472.423 384.08 473.783 384.08C475.33 384.08 476.53 383.573 477.383 382.56C478.237 381.52 478.663 380.08 478.663 378.24V368.16H483.703V391.52C483.703 392.88 483.303 393.96 482.503 394.76C481.703 395.587 480.637 396 479.303 396H466.823ZM507.468 388.56C505.895 388.56 504.415 388.173 503.028 387.4C501.668 386.6 500.575 385.44 499.748 383.92C498.921 382.4 498.508 380.56 498.508 378.4V377.76C498.508 375.6 498.921 373.76 499.748 372.24C500.575 370.72 501.668 369.573 503.028 368.8C504.388 368 505.868 367.6 507.468 367.6C508.668 367.6 509.668 367.747 510.468 368.04C511.295 368.307 511.961 368.653 512.468 369.08C512.975 369.507 513.361 369.96 513.628 370.44H514.348V360H519.388V388H514.428V385.6H513.708C513.255 386.347 512.548 387.027 511.588 387.64C510.655 388.253 509.281 388.56 507.468 388.56ZM508.988 384.16C510.535 384.16 511.828 383.667 512.868 382.68C513.908 381.667 514.428 380.2 514.428 378.28V377.88C514.428 375.96 513.908 374.507 512.868 373.52C511.855 372.507 510.561 372 508.988 372C507.441 372 506.148 372.507 505.108 373.52C504.068 374.507 503.548 375.96 503.548 377.88V378.28C503.548 380.2 504.068 381.667 505.108 382.68C506.148 383.667 507.441 384.16 508.988 384.16ZM524.976 388V368.16H530.016V388H524.976ZM527.496 365.84C526.589 365.84 525.816 365.547 525.176 364.96C524.562 364.373 524.256 363.6 524.256 362.64C524.256 361.68 524.562 360.907 525.176 360.32C525.816 359.733 526.589 359.44 527.496 359.44C528.429 359.44 529.202 359.733 529.816 360.32C530.429 360.907 530.736 361.68 530.736 362.64C530.736 363.6 530.429 364.373 529.816 364.96C529.202 365.547 528.429 365.84 527.496 365.84ZM535.601 388V368.16H540.561V370.4H541.281C541.574 369.6 542.054 369.013 542.721 368.64C543.414 368.267 544.214 368.08 545.121 368.08H547.521V372.56H545.041C543.761 372.56 542.707 372.907 541.881 373.6C541.054 374.267 540.641 375.307 540.641 376.72V388H535.601ZM559.797 388.56C557.824 388.56 556.077 388.147 554.557 387.32C553.064 386.467 551.89 385.28 551.037 383.76C550.21 382.213 549.797 380.4 549.797 378.32V377.84C549.797 375.76 550.21 373.96 551.037 372.44C551.864 370.893 553.024 369.707 554.517 368.88C556.01 368.027 557.744 367.6 559.717 367.6C561.664 367.6 563.357 368.04 564.797 368.92C566.237 369.773 567.357 370.973 568.157 372.52C568.957 374.04 569.357 375.813 569.357 377.84V379.56H554.917C554.97 380.92 555.477 382.027 556.437 382.88C557.397 383.733 558.57 384.16 559.957 384.16C561.37 384.16 562.41 383.853 563.077 383.24C563.744 382.627 564.25 381.947 564.597 381.2L568.717 383.36C568.344 384.053 567.797 384.813 567.077 385.64C566.384 386.44 565.45 387.133 564.277 387.72C563.104 388.28 561.61 388.56 559.797 388.56ZM554.957 375.8H564.237C564.13 374.653 563.664 373.733 562.837 373.04C562.037 372.347 560.984 372 559.677 372C558.317 372 557.237 372.347 556.437 373.04C555.637 373.733 555.144 374.653 554.957 375.8ZM583.163 388.56C581.243 388.56 579.496 388.16 577.923 387.36C576.376 386.56 575.15 385.4 574.243 383.88C573.336 382.36 572.883 380.52 572.883 378.36V377.8C572.883 375.64 573.336 373.8 574.243 372.28C575.15 370.76 576.376 369.6 577.923 368.8C579.496 368 581.243 367.6 583.163 367.6C585.056 367.6 586.683 367.933 588.043 368.6C589.403 369.267 590.496 370.187 591.323 371.36C592.176 372.507 592.736 373.813 593.003 375.28L588.123 376.32C588.016 375.52 587.776 374.8 587.403 374.16C587.03 373.52 586.496 373.013 585.803 372.64C585.136 372.267 584.296 372.08 583.283 372.08C582.27 372.08 581.35 372.307 580.523 372.76C579.723 373.187 579.083 373.84 578.603 374.72C578.15 375.573 577.923 376.627 577.923 377.88V378.28C577.923 379.533 578.15 380.6 578.603 381.48C579.083 382.333 579.723 382.987 580.523 383.44C581.35 383.867 582.27 384.08 583.283 384.08C584.803 384.08 585.95 383.693 586.723 382.92C587.523 382.12 588.03 381.08 588.243 379.8L593.123 380.96C592.776 382.373 592.176 383.667 591.323 384.84C590.496 385.987 589.403 386.893 588.043 387.56C586.683 388.227 585.056 388.56 583.163 388.56ZM604.216 388C602.91 388 601.843 387.6 601.016 386.8C600.216 385.973 599.816 384.88 599.816 383.52V372.32H594.856V368.16H599.816V362H604.856V368.16H610.296V372.32H604.856V382.64C604.856 383.44 605.23 383.84 605.976 383.84H609.816V388H604.216ZM623.595 388.56C621.622 388.56 619.849 388.16 618.275 387.36C616.702 386.56 615.462 385.4 614.555 383.88C613.649 382.36 613.195 380.533 613.195 378.4V377.76C613.195 375.627 613.649 373.8 614.555 372.28C615.462 370.76 616.702 369.6 618.275 368.8C619.849 368 621.622 367.6 623.595 367.6C625.569 367.6 627.342 368 628.915 368.8C630.489 369.6 631.729 370.76 632.635 372.28C633.542 373.8 633.995 375.627 633.995 377.76V378.4C633.995 380.533 633.542 382.36 632.635 383.88C631.729 385.4 630.489 386.56 628.915 387.36C627.342 388.16 625.569 388.56 623.595 388.56ZM623.595 384.08C625.142 384.08 626.422 383.587 627.435 382.6C628.449 381.587 628.955 380.147 628.955 378.28V377.88C628.955 376.013 628.449 374.587 627.435 373.6C626.449 372.587 625.169 372.08 623.595 372.08C622.049 372.08 620.769 372.587 619.755 373.6C618.742 374.587 618.235 376.013 618.235 377.88V378.28C618.235 380.147 618.742 381.587 619.755 382.6C620.769 383.587 622.049 384.08 623.595 384.08ZM638.648 388V368.16H643.608V370.4H644.328C644.621 369.6 645.101 369.013 645.768 368.64C646.461 368.267 647.261 368.08 648.168 368.08H650.568V372.56H648.088C646.808 372.56 645.754 372.907 644.928 373.6C644.101 374.267 643.688 375.307 643.688 376.72V388H638.648ZM656.667 396V391.6H667.467C668.214 391.6 668.587 391.2 668.587 390.4V385.4H667.867C667.654 385.853 667.32 386.307 666.867 386.76C666.414 387.213 665.8 387.587 665.027 387.88C664.254 388.173 663.267 388.32 662.067 388.32C660.52 388.32 659.16 387.973 657.987 387.28C656.84 386.56 655.947 385.573 655.307 384.32C654.667 383.067 654.347 381.627 654.347 380V368.16H659.387V379.6C659.387 381.093 659.747 382.213 660.467 382.96C661.214 383.707 662.267 384.08 663.627 384.08C665.174 384.08 666.374 383.573 667.227 382.56C668.08 381.52 668.507 380.08 668.507 378.24V368.16H673.547V391.52C673.547 392.88 673.147 393.96 672.347 394.76C671.547 395.587 670.48 396 669.147 396H656.667ZM696.912 388C695.605 388 694.538 387.6 693.712 386.8C692.912 385.973 692.512 384.88 692.512 383.52V372.32H687.552V368.16H692.512V362H697.552V368.16H702.992V372.32H697.552V382.64C697.552 383.44 697.925 383.84 698.672 383.84H702.512V388H696.912ZM707.554 388V368.16H712.514V370.4H713.234C713.527 369.6 714.007 369.013 714.674 368.64C715.367 368.267 716.167 368.08 717.074 368.08H719.474V372.56H716.994C715.714 372.56 714.661 372.907 713.834 373.6C713.007 374.267 712.594 375.307 712.594 376.72V388H707.554ZM731.75 388.56C729.777 388.56 728.03 388.147 726.51 387.32C725.017 386.467 723.843 385.28 722.99 383.76C722.163 382.213 721.75 380.4 721.75 378.32V377.84C721.75 375.76 722.163 373.96 722.99 372.44C723.817 370.893 724.977 369.707 726.47 368.88C727.963 368.027 729.697 367.6 731.67 367.6C733.617 367.6 735.31 368.04 736.75 368.92C738.19 369.773 739.31 370.973 740.11 372.52C740.91 374.04 741.31 375.813 741.31 377.84V379.56H726.87C726.923 380.92 727.43 382.027 728.39 382.88C729.35 383.733 730.523 384.16 731.91 384.16C733.323 384.16 734.363 383.853 735.03 383.24C735.697 382.627 736.203 381.947 736.55 381.2L740.67 383.36C740.297 384.053 739.75 384.813 739.03 385.64C738.337 386.44 737.403 387.133 736.23 387.72C735.057 388.28 733.563 388.56 731.75 388.56ZM726.91 375.8H736.19C736.083 374.653 735.617 373.733 734.79 373.04C733.99 372.347 732.937 372 731.63 372C730.27 372 729.19 372.347 728.39 373.04C727.59 373.733 727.097 374.653 726.91 375.8ZM754.836 388.56C752.863 388.56 751.116 388.147 749.596 387.32C748.103 386.467 746.929 385.28 746.076 383.76C745.249 382.213 744.836 380.4 744.836 378.32V377.84C744.836 375.76 745.249 373.96 746.076 372.44C746.903 370.893 748.063 369.707 749.556 368.88C751.049 368.027 752.783 367.6 754.756 367.6C756.703 367.6 758.396 368.04 759.836 368.92C761.276 369.773 762.396 370.973 763.196 372.52C763.996 374.04 764.396 375.813 764.396 377.84V379.56H749.956C750.009 380.92 750.516 382.027 751.476 382.88C752.436 383.733 753.609 384.16 754.996 384.16C756.409 384.16 757.449 383.853 758.116 383.24C758.783 382.627 759.289 381.947 759.636 381.2L763.756 383.36C763.383 384.053 762.836 384.813 762.116 385.64C761.423 386.44 760.489 387.133 759.316 387.72C758.143 388.28 756.649 388.56 754.836 388.56ZM749.996 375.8H759.276C759.169 374.653 758.703 373.733 757.876 373.04C757.076 372.347 756.023 372 754.716 372C753.356 372 752.276 372.347 751.476 373.04C750.676 373.733 750.183 374.653 749.996 375.8ZM783.198 388L776.878 368.16H782.238L786.838 384.32H787.558L792.158 368.16H797.518L791.198 388H783.198ZM800.952 388V368.16H805.992V388H800.952ZM803.472 365.84C802.566 365.84 801.792 365.547 801.152 364.96C800.539 364.373 800.232 363.6 800.232 362.64C800.232 361.68 800.539 360.907 801.152 360.32C801.792 359.733 802.566 359.44 803.472 359.44C804.406 359.44 805.179 359.733 805.792 360.32C806.406 360.907 806.712 361.68 806.712 362.64C806.712 363.6 806.406 364.373 805.792 364.96C805.179 365.547 804.406 365.84 803.472 365.84ZM820.617 388.56C818.644 388.56 816.897 388.147 815.377 387.32C813.884 386.467 812.711 385.28 811.857 383.76C811.031 382.213 810.617 380.4 810.617 378.32V377.84C810.617 375.76 811.031 373.96 811.857 372.44C812.684 370.893 813.844 369.707 815.337 368.88C816.831 368.027 818.564 367.6 820.537 367.6C822.484 367.6 824.177 368.04 825.617 368.92C827.057 369.773 828.177 370.973 828.977 372.52C829.777 374.04 830.177 375.813 830.177 377.84V379.56H815.737C815.791 380.92 816.297 382.027 817.257 382.88C818.217 383.733 819.391 384.16 820.777 384.16C822.191 384.16 823.231 383.853 823.897 383.24C824.564 382.627 825.071 381.947 825.417 381.2L829.537 383.36C829.164 384.053 828.617 384.813 827.897 385.64C827.204 386.44 826.271 387.133 825.097 387.72C823.924 388.28 822.431 388.56 820.617 388.56ZM815.777 375.8H825.057C824.951 374.653 824.484 373.733 823.657 373.04C822.857 372.347 821.804 372 820.497 372C819.137 372 818.057 372.347 817.257 373.04C816.457 373.733 815.964 374.653 815.777 375.8ZM836.185 388L833.385 368.16H838.385L840.145 384.6H840.865L843.425 368.16H851.505L854.065 384.6H854.785L856.545 368.16H861.545L858.745 388H850.385L847.825 371.56H847.105L844.545 388H836.185ZM874.914 388.56C872.941 388.56 871.194 388.147 869.674 387.32C868.181 386.467 867.008 385.28 866.154 383.76C865.328 382.213 864.914 380.4 864.914 378.32V377.84C864.914 375.76 865.328 373.96 866.154 372.44C866.981 370.893 868.141 369.707 869.634 368.88C871.128 368.027 872.861 367.6 874.834 367.6C876.781 367.6 878.474 368.04 879.914 368.92C881.354 369.773 882.474 370.973 883.274 372.52C884.074 374.04 884.474 375.813 884.474 377.84V379.56H870.034C870.088 380.92 870.594 382.027 871.554 382.88C872.514 383.733 873.688 384.16 875.074 384.16C876.488 384.16 877.528 383.853 878.194 383.24C878.861 382.627 879.368 381.947 879.714 381.2L883.834 383.36C883.461 384.053 882.914 384.813 882.194 385.64C881.501 386.44 880.568 387.133 879.394 387.72C878.221 388.28 876.728 388.56 874.914 388.56ZM870.074 375.8H879.354C879.248 374.653 878.781 373.733 877.954 373.04C877.154 372.347 876.101 372 874.794 372C873.434 372 872.354 372.347 871.554 373.04C870.754 373.733 870.261 374.653 870.074 375.8ZM888.96 388V368.16H893.92V370.4H894.64C894.933 369.6 895.413 369.013 896.08 368.64C896.773 368.267 897.573 368.08 898.48 368.08H900.88V372.56H898.4C897.12 372.56 896.067 372.907 895.24 373.6C894.413 374.267 894 375.307 894 376.72V388H888.96ZM482.221 439V423.32H477.181V419.16H482.221V415.48C482.221 414.12 482.621 413.04 483.421 412.24C484.247 411.413 485.314 411 486.621 411H491.821V415.16H488.381C487.634 415.16 487.261 415.56 487.261 416.36V419.16H492.461V423.32H487.261V439H482.221ZM505.138 439.56C503.165 439.56 501.392 439.16 499.818 438.36C498.245 437.56 497.005 436.4 496.098 434.88C495.192 433.36 494.738 431.533 494.738 429.4V428.76C494.738 426.627 495.192 424.8 496.098 423.28C497.005 421.76 498.245 420.6 499.818 419.8C501.392 419 503.165 418.6 505.138 418.6C507.112 418.6 508.885 419 510.458 419.8C512.032 420.6 513.272 421.76 514.178 423.28C515.085 424.8 515.538 426.627 515.538 428.76V429.4C515.538 431.533 515.085 433.36 514.178 434.88C513.272 436.4 512.032 437.56 510.458 438.36C508.885 439.16 507.112 439.56 505.138 439.56ZM505.138 435.08C506.685 435.08 507.965 434.587 508.978 433.6C509.992 432.587 510.498 431.147 510.498 429.28V428.88C510.498 427.013 509.992 425.587 508.978 424.6C507.992 423.587 506.712 423.08 505.138 423.08C503.592 423.08 502.312 423.587 501.298 424.6C500.285 425.587 499.778 427.013 499.778 428.88V429.28C499.778 431.147 500.285 432.587 501.298 433.6C502.312 434.587 503.592 435.08 505.138 435.08ZM520.191 439V419.16H525.151V421.4H525.871C526.164 420.6 526.644 420.013 527.311 419.64C528.004 419.267 528.804 419.08 529.711 419.08H532.111V423.56H529.631C528.351 423.56 527.297 423.907 526.471 424.6C525.644 425.267 525.231 426.307 525.231 427.72V439H520.191ZM548.366 447V442.6H559.166C559.913 442.6 560.286 442.2 560.286 441.4V436.4H559.566C559.353 436.853 559.02 437.307 558.566 437.76C558.113 438.213 557.5 438.587 556.726 438.88C555.953 439.173 554.966 439.32 553.766 439.32C552.22 439.32 550.86 438.973 549.686 438.28C548.54 437.56 547.646 436.573 547.006 435.32C546.366 434.067 546.046 432.627 546.046 431V419.16H551.086V430.6C551.086 432.093 551.446 433.213 552.166 433.96C552.913 434.707 553.966 435.08 555.326 435.08C556.873 435.08 558.073 434.573 558.926 433.56C559.78 432.52 560.206 431.08 560.206 429.24V419.16H565.246V442.52C565.246 443.88 564.846 444.96 564.046 445.76C563.246 446.587 562.18 447 560.846 447H548.366ZM580.295 439.56C578.321 439.56 576.548 439.16 574.975 438.36C573.401 437.56 572.161 436.4 571.255 434.88C570.348 433.36 569.895 431.533 569.895 429.4V428.76C569.895 426.627 570.348 424.8 571.255 423.28C572.161 421.76 573.401 420.6 574.975 419.8C576.548 419 578.321 418.6 580.295 418.6C582.268 418.6 584.041 419 585.615 419.8C587.188 420.6 588.428 421.76 589.335 423.28C590.241 424.8 590.695 426.627 590.695 428.76V429.4C590.695 431.533 590.241 433.36 589.335 434.88C588.428 436.4 587.188 437.56 585.615 438.36C584.041 439.16 582.268 439.56 580.295 439.56ZM580.295 435.08C581.841 435.08 583.121 434.587 584.135 433.6C585.148 432.587 585.655 431.147 585.655 429.28V428.88C585.655 427.013 585.148 425.587 584.135 424.6C583.148 423.587 581.868 423.08 580.295 423.08C578.748 423.08 577.468 423.587 576.455 424.6C575.441 425.587 574.935 427.013 574.935 428.88V429.28C574.935 431.147 575.441 432.587 576.455 433.6C577.468 434.587 578.748 435.08 580.295 435.08ZM602.907 439.32C601.36 439.32 600 438.973 598.827 438.28C597.68 437.56 596.787 436.573 596.147 435.32C595.507 434.067 595.187 432.627 595.187 431V419.16H600.227V430.6C600.227 432.093 600.587 433.213 601.307 433.96C602.054 434.707 603.107 435.08 604.467 435.08C606.014 435.08 607.214 434.573 608.067 433.56C608.92 432.52 609.347 431.08 609.347 429.24V419.16H614.387V439H609.427V436.4H608.707C608.387 437.067 607.787 437.72 606.907 438.36C606.027 439 604.694 439.32 602.907 439.32ZM619.995 439V419.16H624.955V421.4H625.675C625.969 420.6 626.449 420.013 627.115 419.64C627.809 419.267 628.609 419.08 629.515 419.08H631.915V423.56H629.435C628.155 423.56 627.102 423.907 626.275 424.6C625.449 425.267 625.035 426.307 625.035 427.72V439H619.995ZM653.611 439C652.304 439 651.238 438.6 650.411 437.8C649.611 436.973 649.211 435.88 649.211 434.52V423.32H644.251V419.16H649.211V413H654.251V419.16H659.691V423.32H654.251V433.64C654.251 434.44 654.624 434.84 655.371 434.84H659.211V439H653.611ZM672.59 439.56C670.617 439.56 668.87 439.147 667.35 438.32C665.857 437.467 664.683 436.28 663.83 434.76C663.003 433.213 662.59 431.4 662.59 429.32V428.84C662.59 426.76 663.003 424.96 663.83 423.44C664.657 421.893 665.817 420.707 667.31 419.88C668.803 419.027 670.537 418.6 672.51 418.6C674.457 418.6 676.15 419.04 677.59 419.92C679.03 420.773 680.15 421.973 680.95 423.52C681.75 425.04 682.15 426.813 682.15 428.84V430.56H667.71C667.763 431.92 668.27 433.027 669.23 433.88C670.19 434.733 671.363 435.16 672.75 435.16C674.163 435.16 675.203 434.853 675.87 434.24C676.537 433.627 677.043 432.947 677.39 432.2L681.51 434.36C681.137 435.053 680.59 435.813 679.87 436.64C679.177 437.44 678.243 438.133 677.07 438.72C675.897 439.28 674.403 439.56 672.59 439.56ZM667.75 426.8H677.03C676.923 425.653 676.457 424.733 675.63 424.04C674.83 423.347 673.777 423 672.47 423C671.11 423 670.03 423.347 669.23 424.04C668.43 424.733 667.937 425.653 667.75 426.8ZM686.636 439V419.16H691.596V421.4H692.316C692.609 420.6 693.089 420.013 693.756 419.64C694.449 419.267 695.249 419.08 696.156 419.08H698.556V423.56H696.076C694.796 423.56 693.743 423.907 692.916 424.6C692.089 425.267 691.676 426.307 691.676 427.72V439H686.636ZM702.495 439V419.16H707.455V421.32H708.175C708.522 420.653 709.095 420.08 709.895 419.6C710.695 419.093 711.749 418.84 713.055 418.84C714.469 418.84 715.602 419.12 716.455 419.68C717.309 420.213 717.962 420.92 718.415 421.8H719.135C719.589 420.947 720.229 420.24 721.055 419.68C721.882 419.12 723.055 418.84 724.575 418.84C725.802 418.84 726.909 419.107 727.895 419.64C728.909 420.147 729.709 420.933 730.295 422C730.909 423.04 731.215 424.36 731.215 425.96V439H726.175V426.32C726.175 425.227 725.895 424.413 725.335 423.88C724.775 423.32 723.989 423.04 722.975 423.04C721.829 423.04 720.935 423.413 720.295 424.16C719.682 424.88 719.375 425.92 719.375 427.28V439H714.335V426.32C714.335 425.227 714.055 424.413 713.495 423.88C712.935 423.32 712.149 423.04 711.135 423.04C709.989 423.04 709.095 423.413 708.455 424.16C707.842 424.88 707.535 425.92 707.535 427.28V439H702.495ZM736.636 439V419.16H741.676V439H736.636ZM739.156 416.84C738.249 416.84 737.476 416.547 736.836 415.96C736.223 415.373 735.916 414.6 735.916 413.64C735.916 412.68 736.223 411.907 736.836 411.32C737.476 410.733 738.249 410.44 739.156 410.44C740.089 410.44 740.863 410.733 741.476 411.32C742.089 411.907 742.396 412.68 742.396 413.64C742.396 414.6 742.089 415.373 741.476 415.96C740.863 416.547 740.089 416.84 739.156 416.84ZM747.261 439V419.16H752.221V421.76H752.941C753.261 421.067 753.861 420.413 754.741 419.8C755.621 419.16 756.954 418.84 758.741 418.84C760.288 418.84 761.634 419.2 762.781 419.92C763.954 420.613 764.861 421.587 765.501 422.84C766.141 424.067 766.461 425.507 766.461 427.16V439H761.421V427.56C761.421 426.067 761.048 424.947 760.301 424.2C759.581 423.453 758.541 423.08 757.181 423.08C755.634 423.08 754.434 423.6 753.581 424.64C752.728 425.653 752.301 427.08 752.301 428.92V439H747.261ZM778.069 439.56C776.656 439.56 775.389 439.32 774.269 438.84C773.149 438.333 772.256 437.613 771.589 436.68C770.949 435.72 770.629 434.56 770.629 433.2C770.629 431.84 770.949 430.707 771.589 429.8C772.256 428.867 773.163 428.173 774.309 427.72C775.483 427.24 776.816 427 778.309 427H783.749V425.88C783.749 424.947 783.456 424.187 782.869 423.6C782.283 422.987 781.349 422.68 780.069 422.68C778.816 422.68 777.883 422.973 777.269 423.56C776.656 424.12 776.256 424.853 776.069 425.76L771.429 424.2C771.749 423.187 772.256 422.267 772.949 421.44C773.669 420.587 774.616 419.907 775.789 419.4C776.989 418.867 778.443 418.6 780.149 418.6C782.763 418.6 784.829 419.253 786.349 420.56C787.869 421.867 788.629 423.76 788.629 426.24V433.64C788.629 434.44 789.003 434.84 789.749 434.84H791.349V439H787.989C787.003 439 786.189 438.76 785.549 438.28C784.909 437.8 784.589 437.16 784.589 436.36V436.32H783.829C783.723 436.64 783.483 437.067 783.109 437.6C782.736 438.107 782.149 438.56 781.349 438.96C780.549 439.36 779.456 439.56 778.069 439.56ZM778.949 435.48C780.363 435.48 781.509 435.093 782.389 434.32C783.296 433.52 783.749 432.467 783.749 431.16V430.76H778.669C777.736 430.76 777.003 430.96 776.469 431.36C775.936 431.76 775.669 432.32 775.669 433.04C775.669 433.76 775.949 434.347 776.509 434.8C777.069 435.253 777.883 435.48 778.949 435.48ZM795.034 439V411H800.074V439H795.034Z" fill="#8B949E"/>
</svg>
