<svg width="1280" height="300" viewBox="0 0 1280 300" fill="none" xmlns="http://www.w3.org/2000/svg">
<rect width="1280" height="300" rx="10" fill="#0F1115"/>
<line x1="79" y1="145" x2="297" y2="145" stroke="#5A5A5A" stroke-width="10"/>
<line x1="982" y1="145" x2="1200" y2="145" stroke="#5A5A5A" stroke-width="10"/>
<path d="M368.888 195V180.152H380.664V120.248H368.888V105.4H414.968C420.429 105.4 425.165 106.339 429.176 108.216C433.272 110.008 436.429 112.611 438.648 116.024C440.952 119.352 442.104 123.363 442.104 128.056V129.336C442.104 133.432 441.336 136.803 439.8 139.448C438.264 142.008 436.429 144.013 434.296 145.464C432.248 146.829 430.285 147.811 428.408 148.408V150.712C430.285 151.224 432.333 152.205 434.552 153.656C436.771 155.021 438.648 157.027 440.184 159.672C441.805 162.317 442.616 165.773 442.616 170.04V171.32C442.616 176.269 441.464 180.536 439.16 184.12C436.856 187.619 433.656 190.307 429.56 192.184C425.549 194.061 420.856 195 415.48 195H368.888ZM397.56 179.64H413.432C417.101 179.64 420.045 178.744 422.264 176.952C424.568 175.16 425.72 172.6 425.72 169.272V167.992C425.72 164.664 424.611 162.104 422.392 160.312C420.173 158.52 417.187 157.624 413.432 157.624H397.56V179.64ZM397.56 142.264H413.176C416.675 142.264 419.533 141.368 421.752 139.576C424.056 137.784 425.208 135.309 425.208 132.152V130.872C425.208 127.629 424.099 125.155 421.88 123.448C419.661 121.656 416.76 120.76 413.176 120.76H397.56V142.264ZM485.888 196.792C479.573 196.792 473.984 195.469 469.12 192.824C464.341 190.093 460.587 186.296 457.856 181.432C455.211 176.483 453.888 170.68 453.888 164.024V162.488C453.888 155.832 455.211 150.072 457.856 145.208C460.501 140.259 464.213 136.461 468.992 133.816C473.771 131.085 479.317 129.72 485.632 129.72C491.861 129.72 497.28 131.128 501.888 133.944C506.496 136.675 510.08 140.515 512.64 145.464C515.2 150.328 516.48 156.003 516.48 162.488V167.992H470.272C470.443 172.344 472.064 175.885 475.136 178.616C478.208 181.347 481.963 182.712 486.4 182.712C490.923 182.712 494.251 181.731 496.384 179.768C498.517 177.805 500.139 175.629 501.248 173.24L514.432 180.152C513.237 182.371 511.488 184.803 509.184 187.448C506.965 190.008 503.979 192.227 500.224 194.104C496.469 195.896 491.691 196.792 485.888 196.792ZM470.4 155.96H500.096C499.755 152.291 498.261 149.347 495.616 147.128C493.056 144.909 489.685 143.8 485.504 143.8C481.152 143.8 477.696 144.909 475.136 147.128C472.576 149.347 470.997 152.291 470.4 155.96ZM550.547 196.792C546.024 196.792 541.971 196.024 538.387 194.488C534.803 192.867 531.944 190.563 529.811 187.576C527.763 184.504 526.739 180.792 526.739 176.44C526.739 172.088 527.763 168.461 529.811 165.56C531.944 162.573 534.846 160.355 538.515 158.904C542.27 157.368 546.536 156.6 551.315 156.6H568.723V153.016C568.723 150.029 567.784 147.597 565.907 145.72C564.03 143.757 561.043 142.776 556.947 142.776C552.936 142.776 549.95 143.715 547.987 145.592C546.024 147.384 544.744 149.731 544.147 152.632L529.299 147.64C530.323 144.397 531.944 141.453 534.163 138.808C536.467 136.077 539.496 133.901 543.251 132.28C547.091 130.573 551.742 129.72 557.203 129.72C565.566 129.72 572.179 131.811 577.043 135.992C581.907 140.173 584.339 146.232 584.339 154.168V177.848C584.339 180.408 585.534 181.688 587.923 181.688H593.043V195H582.291C579.134 195 576.531 194.232 574.483 192.696C572.435 191.16 571.411 189.112 571.411 186.552V186.424H568.979C568.638 187.448 567.87 188.813 566.675 190.52C565.48 192.141 563.603 193.592 561.043 194.872C558.483 196.152 554.984 196.792 550.547 196.792ZM553.363 183.736C557.886 183.736 561.555 182.499 564.371 180.024C567.272 177.464 568.723 174.093 568.723 169.912V168.632H552.467C549.48 168.632 547.134 169.272 545.427 170.552C543.72 171.832 542.867 173.624 542.867 175.928C542.867 178.232 543.763 180.109 545.555 181.56C547.347 183.011 549.95 183.736 553.363 183.736ZM627.277 196.024C622.328 196.024 617.976 194.915 614.221 192.696C610.552 190.392 607.693 187.235 605.645 183.224C603.597 179.213 602.573 174.605 602.573 169.4V131.512H618.701V168.12C618.701 172.899 619.853 176.483 622.157 178.872C624.546 181.261 627.917 182.456 632.269 182.456C637.218 182.456 641.058 180.835 643.789 177.592C646.52 174.264 647.885 169.656 647.885 163.768V131.512H664.013V195H648.141V186.68H645.837C644.813 188.813 642.893 190.904 640.077 192.952C637.261 195 632.994 196.024 627.277 196.024Z" fill="#5A5A5A"/>
<path d="M706.28 195C702.099 195 698.685 193.72 696.04 191.16C693.48 188.515 692.2 185.016 692.2 180.664V144.824H676.328V131.512H692.2V111.8H708.328V131.512H725.736V144.824H708.328V177.848C708.328 180.408 709.523 181.688 711.912 181.688H724.2V195H706.28ZM740.335 195V131.512H756.207V138.68H758.511C759.45 136.12 760.986 134.243 763.119 133.048C765.338 131.853 767.898 131.256 770.799 131.256H778.479V145.592H770.543C766.447 145.592 763.076 146.701 760.431 148.92C757.786 151.053 756.463 154.381 756.463 158.904V195H740.335ZM817.763 196.792C811.448 196.792 805.859 195.469 800.995 192.824C796.216 190.093 792.462 186.296 789.731 181.432C787.086 176.483 785.763 170.68 785.763 164.024V162.488C785.763 155.832 787.086 150.072 789.731 145.208C792.376 140.259 796.088 136.461 800.867 133.816C805.646 131.085 811.192 129.72 817.507 129.72C823.736 129.72 829.155 131.128 833.763 133.944C838.371 136.675 841.955 140.515 844.515 145.464C847.075 150.328 848.355 156.003 848.355 162.488V167.992H802.147C802.318 172.344 803.939 175.885 807.011 178.616C810.083 181.347 813.838 182.712 818.275 182.712C822.798 182.712 826.126 181.731 828.259 179.768C830.392 177.805 832.014 175.629 833.123 173.24L846.307 180.152C845.112 182.371 843.363 184.803 841.059 187.448C838.84 190.008 835.854 192.227 832.099 194.104C828.344 195.896 823.566 196.792 817.763 196.792ZM802.275 155.96H831.971C831.63 152.291 830.136 149.347 827.491 147.128C824.931 144.909 821.56 143.8 817.379 143.8C813.027 143.8 809.571 144.909 807.011 147.128C804.451 149.347 802.872 152.291 802.275 155.96ZM891.638 196.792C885.323 196.792 879.734 195.469 874.87 192.824C870.091 190.093 866.337 186.296 863.606 181.432C860.961 176.483 859.638 170.68 859.638 164.024V162.488C859.638 155.832 860.961 150.072 863.606 145.208C866.251 140.259 869.963 136.461 874.742 133.816C879.521 131.085 885.067 129.72 891.382 129.72C897.611 129.72 903.03 131.128 907.638 133.944C912.246 136.675 915.83 140.515 918.39 145.464C920.95 150.328 922.23 156.003 922.23 162.488V167.992H876.022C876.193 172.344 877.814 175.885 880.886 178.616C883.958 181.347 887.713 182.712 892.15 182.712C896.673 182.712 900.001 181.731 902.134 179.768C904.267 177.805 905.889 175.629 906.998 173.24L920.182 180.152C918.987 182.371 917.238 184.803 914.934 187.448C912.715 190.008 909.729 192.227 905.974 194.104C902.219 195.896 897.441 196.792 891.638 196.792ZM876.15 155.96H905.846C905.505 152.291 904.011 149.347 901.366 147.128C898.806 144.909 895.435 143.8 891.254 143.8C886.902 143.8 883.446 144.909 880.886 147.128C878.326 149.347 876.747 152.291 876.15 155.96Z" fill="#61AFEF"/>
</svg>
